# xmcd
#
# Track frame offsets: 
#        150
#        16392
#        30140
#        40382
#        55135
#        71300
#        85235
#        98110
#        114065
#        132345
#        142225
#        160730
#        178390
#        195992
#        212667
#        234920
#        254882
#        269437
#
# Disc length: 3764 seconds
#
# Revision: 0
# Processed by: cddbd v1.5.1PL2 Copyright (c) Steve Scherf et al.
# Submitted via: ExactAudioCopy v0.95a5
#
DISCID=f70eb212
DTITLE=Hootin' The Blues - Acoustic Blues ...
DYEAR=1992
DGENRE=Blues
TTITLE0=Walkin' Blues
TTITLE1=That Will Never Happen No More
TTITLE2=MyOccupation
TTITLE3=Always In Love With You
TTITLE4=St. James Infermary
TTITLE5=Let Me Play With Your Poodle
TTITLE6=Rollin' On
TTITLE7=Don't Get Around Much Anymore
TTITLE8=C-Jam Blues
TTITLE9=Don't Want Nothing But To Be With You
TTITLE10=Help Me
TTITLE11=Collector Man
TTITLE12=Nobody Knows You When You Down And Out
TTITLE13=Yes, Baby Yes
TTITLE14=The Thrill Is Gone
TTITLE15=Jesus On The Mainline
TTITLE16=Last Fair Deal
TTITLE17=Down The Line
EXTD=
EXTT0=
EXTT1=
EXTT2=
EXTT3=
EXTT4=
EXTT5=
EXTT6=
EXTT7=
EXTT8=
EXTT9=
EXTT10=
EXTT11=
EXTT12=
EXTT13=
EXTT14=
EXTT15=
EXTT16=
EXTT17=
PLAYORDER=
